<?xml version="1.0" encoding="utf-8"?>
<!-- Svg Vector Icons : http://www.onlinewebfonts.com/icon -->
<!DOCTYPE svg PUBLIC "-//W3C//DTD SVG 1.1//EN" "http://www.w3.org/Graphics/SVG/1.1/DTD/svg11.dtd">
<svg width="130" height="130" version="1.1" xmlns="http://www.w3.org/2000/svg" xmlns:xlink="http://www.w3.org/1999/xlink" x="0px" y="0px" viewBox="0 0 1000 1000" enable-background="new 0 0 1000 1000" xml:space="preserve">
<metadata> Svg Vector Icons : http://www.onlinewebfonts.com/icon </metadata>
<g><path d="M273.3,236.7c0,125.2,101.5,226.7,226.7,226.7c125.2,0,226.7-101.5,226.7-226.7S625.2,10,500,10C374.8,10,273.3,111.5,273.3,236.7L273.3,236.7z"/><path d="M882,649.1L749.1,534.9c-10-8.6-24.6-9.6-35.3-1.9c-17.3,12.5-35.9,23.4-55.3,32.8l-47.3,310.9c-3.4,22.3-22.6,38.8-45.1,38.8H500h-3h-66.1c-22.6,0-41.7-16.5-45.1-38.8l-47.7-312.5c-18.2-9-35.6-19.4-52-31.2c-10.6-7.7-25.3-6.7-35.3,1.9L118,649.1c-6.4,5.5-10.1,13.5-10.1,22v290c0,16,13,28.9,28.9,28.9H500h363.2c16,0,28.9-13,28.9-28.9v-290C892.1,662.6,888.4,654.6,882,649.1z"/><path d="M485.4,877.1c8.3,7.6,21,7.6,29.3,0c0,0,43.5-32,43.5-41.4l-23.3-150.6c-1.3-8.3-8.4-14.4-16.8-14.4H482c-8.4,0-15.5,6.1-16.8,14.4l-23.3,150.6C441.9,845.1,485.4,877.1,485.4,877.1z"/><path d="M489.6,632.5c4.6,5.8,13.4,5.8,18.1,0l38-47.3c0.2-0.2,0.1-0.4,0.3-0.6c5.4-7.6,0.2-18.2-9.3-18.2h-76.1c-9.4,0-14.5,10.4-9.4,17.9c0.2,0.3,0.2,0.6,0.4,0.9L489.6,632.5z"/></g>
</svg>
